<svg xmlns="http://www.w3.org/2000/svg" viewBox="0 0 51.02 50"><defs><style>.cls-1{fill:#f8c300;}.cls-2{fill:#231815;}.cls-3{fill:#fff;}</style></defs><g id="レイヤー_2" data-name="レイヤー 2"><g id="design"><path class="cls-1" d="M35,18.67a6.94,6.94,0,0,0-5.3.65,9.29,9.29,0,0,1-4.34.66,8.79,8.79,0,0,1-4.07-.66A6.92,6.92,0,0,0,16,18.67c-1.5.36-1.58.7-1.35,2.22a20.7,20.7,0,0,0,.42,3.48c.36,1,1.65,1.41,2.6,2,2.37,1.52,1.22,3.62,1.25,6s2.75,4.53,4.84,5.07a6.75,6.75,0,0,0,1.78.21,6.12,6.12,0,0,0,1.69-.21c2.09-.54,4.81-2.82,4.84-5.07s-1.13-4.47,1.27-6c.94-.6,2.22-1,2.58-2a19.71,19.71,0,0,0,.42-3.48C36.57,19.37,36.5,19,35,18.67Z"/><path class="cls-2" d="M28.24,1.71a.47.47,0,0,1,.34.13,1,1,0,0,1,.19.36l.15.42c0,.06,0,.13.08.2s.05.13.11.13.09-.09.11-.14.05-.13.08-.2l.15-.42a.87.87,0,0,1,.2-.35A.48.48,0,0,1,30,1.71a.43.43,0,0,1,.32.14,1,1,0,0,1,.19.35l.15.42.08.21s.05.13.12.12.09-.1.11-.15.05-.13.07-.2.1-.28.16-.42a1,1,0,0,1,.17-.33.45.45,0,0,1,.34-.14.35.35,0,0,1,.3.13.37.37,0,0,1,0,.34c-.08.28-.19.56-.29.83l-.3.85c-.08.23-.15.52-.4.61a.52.52,0,0,1-.37,0,.53.53,0,0,1-.24-.25c-.06-.13-.11-.27-.16-.4s-.1-.28-.16-.42A.37.37,0,0,0,30,3.22c-.06,0-.11,0-.13.09a2.9,2.9,0,0,0-.16.41c-.06.14-.1.28-.16.42a.65.65,0,0,1-.21.28.54.54,0,0,1-.39.06.44.44,0,0,1-.28-.22,2.66,2.66,0,0,1-.16-.39l-.15-.42-.3-.84c-.05-.14-.1-.27-.14-.41a.4.4,0,0,1,0-.37A.35.35,0,0,1,28.24,1.71Z"/><path class="cls-2" d="M24.62,3.1v.77c0,.2,0,.46-.19.57a.42.42,0,0,1-.55-.12A.72.72,0,0,1,23.82,4c0-.06,0-.12,0-.18s0-.15-.06-.16-.12.06-.15.1a2,2,0,0,1-.2.3.41.41,0,0,1-.27.15.37.37,0,0,1-.28-.1,1.49,1.49,0,0,1-.2-.29l0-.07c0-.05-.07-.1-.13-.09s-.07.06-.07.11a1.34,1.34,0,0,0,0,.2.78.78,0,0,1,0,.34.43.43,0,0,1-.57.14c-.2-.12-.19-.38-.19-.58V2.3c0-.21,0-.46.24-.56a.52.52,0,0,1,.58.17,2.7,2.7,0,0,1,.2.31c.07.11.14.22.2.33l.1.16a.78.78,0,0,0,.1.15.13.13,0,0,0,.14.05.41.41,0,0,0,.11-.12c.14-.21.26-.44.39-.65s.24-.38.47-.42a.44.44,0,0,1,.32.05.34.34,0,0,1,.15.22,1.16,1.16,0,0,1,0,.37V3.1Z"/><path class="cls-2" d="M32.43,3.1V2.61c0-.16,0-.33,0-.49a.44.44,0,0,1,.16-.34A.71.71,0,0,1,33,1.7h.49a1.83,1.83,0,0,1,.47,0,.77.77,0,0,1,.56.49.7.7,0,0,1,0,.43c0,.13-.14.27-.06.41s.09.13.12.19a.66.66,0,0,1,.09.19.81.81,0,0,1,0,.41.85.85,0,0,1-.54.57,1.33,1.33,0,0,1-.45.07h-.94a.39.39,0,0,1-.27-.21,1.14,1.14,0,0,1,0-.45V3.1Zm1.07.29c-.11,0-.24,0-.29.13a.22.22,0,0,0,.06.27.61.61,0,0,0,.4,0c.11,0,.23-.11.2-.24S33.63,3.4,33.5,3.39Zm0-1.06a.24.24,0,0,0-.26.18c0,.14.12.22.25.22s.33,0,.34-.19S33.59,2.33,33.46,2.33Z"/><path class="cls-2" d="M18.86,3.1V2.25a1.24,1.24,0,0,1,0-.27.38.38,0,0,1,.31-.27h.55a1.57,1.57,0,0,1,1,.21.88.88,0,0,1,.35.84.87.87,0,0,1-.2.46.41.41,0,0,0-.11.23.52.52,0,0,0,.1.23L21,3.9a.86.86,0,0,1,.13.23.27.27,0,0,1-.19.35.6.6,0,0,1-.47-.08A1.42,1.42,0,0,1,20.18,4,1.82,1.82,0,0,0,20,3.76a.29.29,0,0,0-.18-.13c-.21,0-.2.25-.2.38a.45.45,0,0,1-.19.43.41.41,0,0,1-.45,0A.57.57,0,0,1,18.86,4V3.1Zm.8-.47c0,.11,0,.21.14.25a.47.47,0,0,0,.38-.07.22.22,0,0,0,.05-.3.39.39,0,0,0-.37-.11.18.18,0,0,0-.14.06A.27.27,0,0,0,19.66,2.63Z"/><path class="cls-2" d="M26.48,1.67a1.72,1.72,0,0,1,.6.1c.18.06.4.18.44.38a.36.36,0,0,1-.27.38.39.39,0,0,1-.3,0,1.19,1.19,0,0,0-.32-.1.72.72,0,0,0-.53.11.67.67,0,0,0-.26.43.87.87,0,0,0,.09.59.65.65,0,0,0,.43.31.86.86,0,0,0,.32,0A1,1,0,0,0,27,3.7a.53.53,0,0,1,.28-.12.32.32,0,0,1,.26.1.33.33,0,0,1,.11.26.35.35,0,0,1-.14.25,1.1,1.1,0,0,1-.54.29,1.71,1.71,0,0,1-1.22-.14,1.39,1.39,0,0,1-.65-.85,1.49,1.49,0,0,1,.16-1.15,1.38,1.38,0,0,1,1-.64A1.63,1.63,0,0,1,26.48,1.67Z"/><path class="cls-2" d="M15.86,3.08a1.49,1.49,0,0,0-.49-.32,1.31,1.31,0,0,1-.27-.12c-.07,0-.14-.11-.1-.19s.16-.09.24-.07l.28.08a.34.34,0,0,0,.4-.19.36.36,0,0,0-.18-.44,1.41,1.41,0,0,0-.54-.16,1,1,0,0,0-1,.42.82.82,0,0,0,.1,1,1.56,1.56,0,0,0,.5.29,1.34,1.34,0,0,1,.27.13c.07,0,.13.12.08.2s-.17.08-.25.07a1,1,0,0,1-.29-.08.5.5,0,0,0-.27,0,.32.32,0,0,0-.19.15.36.36,0,0,0,.14.45,1.23,1.23,0,0,0,.52.2,1.11,1.11,0,0,0,1-.3A.83.83,0,0,0,16,3.29.8.8,0,0,0,15.86,3.08Z"/><path class="cls-2" d="M36.06,4.49a.37.37,0,0,1-.33-.17.94.94,0,0,1-.08-.47,1.17,1.17,0,0,0-.06-.45A2.82,2.82,0,0,0,35.37,3l-.24-.45L35,2.31c0-.07-.07-.14-.1-.22A.29.29,0,0,1,35,1.75a.5.5,0,0,1,.43,0,.75.75,0,0,1,.28.33l.12.21a.69.69,0,0,0,.13.2c.14.11.25-.15.3-.24a1.7,1.7,0,0,1,.24-.39.49.49,0,0,1,.38-.16.3.3,0,0,1,.31.21.64.64,0,0,1-.13.42l-.24.44-.24.44a1,1,0,0,0-.15.43,3.93,3.93,0,0,1,0,.49.36.36,0,0,1-.18.3A.59.59,0,0,1,36.06,4.49Z"/><path class="cls-2" d="M18,1.7a.73.73,0,0,1,.48.1.35.35,0,0,1,.09.36.41.41,0,0,1-.35.22c-.13,0-.31,0-.36.16a1.06,1.06,0,0,0,0,.25V3.91a1.23,1.23,0,0,1,0,.27.34.34,0,0,1-.25.29.39.39,0,0,1-.43-.12A.83.83,0,0,1,17,3.88V2.75a.57.57,0,0,0,0-.26.23.23,0,0,0-.17-.1c-.16,0-.33,0-.45-.12a.33.33,0,0,1-.07-.34.39.39,0,0,1,.35-.23,2.62,2.62,0,0,1,.28,0h1Z"/><path d="M23.91,29.86a13.18,13.18,0,0,0,1.41.08c.48,0,1,.06,1.44.1.25,0,.84,0,1-.19s-.39-.94-.63-1.07a3.42,3.42,0,0,0-2.45-.3,2.16,2.16,0,0,0-1.07.65C23.4,29.48,23.47,29.77,23.91,29.86Z"/><path d="M23,24c-.05-.4-.59-.81-.88-1a3.59,3.59,0,0,0-2.7-.85c-.29,0-1,.15-1.2.38s.28.71.56.82.44.07.6.2c.36.26.32.79.57,1.1.51.62,1.35,1.11,2,.38a1.76,1.76,0,0,1,.66-.55C22.86,24.33,23.05,24.33,23,24Z"/><path d="M32.48,22.38l-.3-.11a3.41,3.41,0,0,0-3.33.69,2.5,2.5,0,0,0-.83.88c-.24.53.6.55.93.83s.64.69,1.07.65a2.16,2.16,0,0,0,1.16-.91c.21-.3.05-.62.36-.9s.84-.06,1.1-.32C33.05,22.76,33,22.59,32.48,22.38Z"/><path d="M28.53,32.89c-.39-.62-1.29-.76-2.15-.86A6.88,6.88,0,0,0,25.13,32a2.34,2.34,0,0,0-2,1c-.18.24-.67.74-.46,1.06s.89.18,1.17.19c1.12,0,2.25.07,3.36.13.62,0,1.71.35,1.69-.56a.88.88,0,0,0-.07-.33A1.93,1.93,0,0,0,28.53,32.89Z"/><path d="M46.31,8c1.29-1,1.4-2.31,1.8-3.82.46-1.78,1.2-1.87,2.45-3.07C52-.31,49.64,0,48.8.15,46.58.61,44.19.78,42,1.34c-1.75.45-2.48,2-3.3,3.43-1.67,3-5.67,1.05-8.23.76a39.2,39.2,0,0,0-5.11-.26,37.34,37.34,0,0,0-4.85.26C18,5.82,14,7.79,12.29,4.77c-.81-1.45-1.53-3-3.29-3.43C6.82.78,4.44.61,2.21.15,1.37,0-1-.31.45,1.08c1.25,1.2,2,1.29,2.45,3.07C3.29,5.66,3.41,7,4.7,8c1.14.87,2.81,1,3.7,2.24s.85,2.69-.75,2.38C6.49,12.35,5.5,11.46,4.42,11c-.5-.22-1.84-.82-2.3-.3s.61.92.91,1.41c.91,1.44.23,3.68,1.25,5.2A11.44,11.44,0,0,0,6.1,19a1.76,1.76,0,0,1,.54,2.39c-.61.81-1.29.36-2.09.06s-3.46-1.57-2.62.48c.19.45.84.65,1,1.16s-.22,1-.2,1.51C2.77,26,4,27,5.06,27.74A4.77,4.77,0,0,1,7,31.6c.11,1.92,1.51,3.36,1.39,5.31S7,39.85,9.08,41c1.16.65,2.4.72,3.5,1.55,2.19,1.62,3.05,3.54,5.67,4.93,1.87,1,4.24,2.52,7.3,2.52a13,13,0,0,0,7.18-2.29c2.49-1.59,3.53-3.54,5.71-5.16,1.1-.83,2.33-.9,3.48-1.55,2.07-1.15.82-2.28.71-4.09S43.91,33.52,44,31.6A4.67,4.67,0,0,1,46,27.74C47,27,48.24,26,48.3,24.57c0-.48-.31-1.07-.19-1.51s.78-.71,1-1.16c.84-2-1.75-.81-2.62-.48s-1.48.75-2.09-.06A1.76,1.76,0,0,1,44.91,19a12,12,0,0,0,1.83-1.64c1-1.52.34-3.76,1.23-5.2.31-.49,1.48-.78.93-1.41s-1.81.08-2.31.3c-1.07.44-2.06,1.33-3.23,1.57-1.6.31-1.64-1.22-.76-2.38S45.18,8.84,46.31,8Zm-10,12.92a19.71,19.71,0,0,1-.42,3.48c-.36,1-1.64,1.41-2.58,2-2.4,1.52-1.23,3.62-1.27,6s-2.75,4.53-4.84,5.07a6.12,6.12,0,0,1-1.69.21,6.75,6.75,0,0,1-1.78-.21c-2.09-.54-4.81-2.82-4.84-5.07s1.12-4.47-1.25-6c-.95-.6-2.24-1-2.6-2a20.7,20.7,0,0,1-.42-3.48c-.23-1.52-.15-1.86,1.35-2.22a6.92,6.92,0,0,1,5.29.65,8.79,8.79,0,0,0,4.07.66,9.29,9.29,0,0,0,4.34-.66,6.94,6.94,0,0,1,5.3-.65C36.5,19,36.57,19.37,36.35,20.89Z"/><path class="cls-3" d="M23.08,13.08a9.73,9.73,0,0,1,.32-2.42c.19-.82.51-1.48.93-1.38s.56.64.63,1,.15.94.21,1.27.13.37.21.36.18-.23.24-.45A8.75,8.75,0,0,1,26.05,10c.12-.29.28-.6.58-.59s.58.42.67.72a10.87,10.87,0,0,1,.35,2.67,12.84,12.84,0,0,1-.14,2.12c-.12.6-.55.78-.72.22a7.39,7.39,0,0,1-.27-1.47c0-.33-.11-.43-.17-.45s-.16.08-.22.39-.11.55-.22,1c-.21.76-.7,1-1-.09-.1-.34-.18-.64-.25-1s-.29-.33-.35,0c-.11.58-.22,2-.6,2C23.12,15.49,23.07,13.46,23.08,13.08Z"/><path class="cls-3" d="M38.09,12.24c0,.29,0,1.1,0,1.6-.1,1.6-.24,2.21-.68,2.3-.63.12-1.12-1.3-1.23-1.64l-.25-.8c-.06-.2-.16-.53-.29-.56s-.23.15-.25.54c0,.64,0,.88-.1,1.52-.1.91-.64,1.18-.92.08a7.3,7.3,0,0,1-.14-1,14.94,14.94,0,0,1,.3-4.76c.16-.58.78-.9,1.25.55.2.6.32,1.23.49,1.83.22.77.42.56.55-.22a14.06,14.06,0,0,1,.34-1.6c.24-.75.58-.84.74-.07A14.27,14.27,0,0,1,38.09,12.24Z"/><path class="cls-3" d="M16.48,12.67a16.84,16.84,0,0,1,0,1.74c0,.45-.13,1.31-.5,1.34s-.48-.52-.55-.94-.14-.9-.27-1.48c0-.24-.18-.54-.49-.55a.48.48,0,0,0-.44.43c0,.22-.07.56-.11.91a11.53,11.53,0,0,1-.2,1.55c-.05.2-.17.54-.39.54s-.42-.25-.57-.75a17.32,17.32,0,0,1-.27-2.77,14.35,14.35,0,0,1,.23-2.79c.06-.28.21-.81.53-.75s.45,1.16.51,1.49c.09.5.21,1,.62,1s.5-.42.56-.73c.15-.92.1-2.06.57-2.06s.55.76.6,1.09A17.44,17.44,0,0,1,16.48,12.67Z"/><path class="cls-3" d="M19.18,11.16c0,.64,0,1.2,0,1.92,0,.41.11,1.17.62,1.19s.55-.57.58-1c.09-1.21,0-2.32,0-3.31,0-.23.07-.87.47-.87s.53.29.65.85c.48,2.3.25,4.43-.5,5.24a1.74,1.74,0,0,1-2.48,0,5.43,5.43,0,0,1-.62-2.78c0-1.28.05-2,.08-2.26.1-.78.3-1,.59-.94s.51.36.57.79A9.8,9.8,0,0,1,19.18,11.16Z"/><path class="cls-3" d="M30.85,13.69a.47.47,0,0,0-.52.38c-.14.42-.37,1.57-.83,1.57s-.4-1.51-.36-1.87a14.32,14.32,0,0,1,1.25-4.35c.34-.63.82-.63,1.13,0a12.47,12.47,0,0,1,.65,2.25,12.59,12.59,0,0,1,.23,3.63c-.18.51-.61.15-.85-.54C31.4,14.38,31.28,13.69,30.85,13.69Zm.32-1.3c0-.31,0-1.28-.34-1.28s-.37,1-.37,1.19,0,.43.27.44S31.15,12.72,31.17,12.39Z"/><path class="cls-3" d="M16.79,42.58a9.81,9.81,0,0,1,.31-2.38c.19-.8.59-1.46,1-1.35s.47.66.51,1,.12.75.18,1.1c0,.06.08.3.24.3s.22-.2.24-.29a9.55,9.55,0,0,1,.42-1.45c.12-.28.27-.48.6-.48s.57.36.66.65a12.41,12.41,0,0,1,.32,2.66,7.61,7.61,0,0,1-.1,1.66c-.12.7-.49.69-.67.25a7.23,7.23,0,0,1-.32-1.07c-.08-.35-.16-.44-.24-.45s-.14.08-.2.36-.1.56-.2,1c-.17.71-.68.86-1-.1a10,10,0,0,1-.23-1.09c-.06-.37-.13-.46-.2-.46s-.13.05-.19.35-.13,1.67-.55,1.66S16.78,43,16.79,42.58Z"/><path class="cls-3" d="M24.21,44.3c-.21,0-.31.07-.41.36s-.26,1.23-.71,1.23-.46-1.16-.41-1.51a16,16,0,0,1,1.12-4.32.55.55,0,0,1,1.06.12,17.8,17.8,0,0,1,.56,2.14,12.57,12.57,0,0,1,.33,3.31c-.15.54-.53.43-.82-.23-.11-.24-.2-.53-.32-.82A.38.38,0,0,0,24.21,44.3ZM24.55,43c0-.32-.06-1.18-.31-1.18s-.34.84-.34,1.08,0,.43.24.44S24.53,43.34,24.55,43Z"/><path class="cls-3" d="M28.77,39.7a2.58,2.58,0,0,1,2.13,1.76,3.52,3.52,0,0,1-.29,3,2.59,2.59,0,0,1-1.35,1c-.42.12-1.05.17-1.35-.19-.83-1-.83-4-.46-5A1,1,0,0,1,28.77,39.7Zm-.4,2.46a10.53,10.53,0,0,0,.11,1.26c.05.34.11.72.47.75.51,0,.87-.6.94-1.21a1.93,1.93,0,0,0-.43-1.75c-.31-.28-.66-.32-.85-.11S28.39,41.63,28.37,42.16Z"/><path class="cls-3" d="M35.18,38.31c.07.29-.25.44-1,.65-.34.11-.73.25-.69.62,0,.21.2.36.66.5.3.09.89.21.91.54s-.7.45-1,.58-.49.37-.48.66.12.53.56.61,1.28.15,1.32.47-.21.51-1.28.71a1.22,1.22,0,0,1-1.59-.95c-.31-1.06-.76-4,.31-4.57a1.79,1.79,0,0,1,.83-.21C34.2,37.91,35.09,38,35.18,38.31Z"/></g></g></svg>